<?xml version="1.0" standalone="yes"?>
<svg xmlns="http://www.w3.org/2000/svg" width="200" height="200">
<path style="fill:transparent; stroke:none;" d="M0 0L0 200L200 200L200 0L0 0z"/>
<path style="fill:#8cccec; stroke:none;" d="M61 46C91.1697 46.6227 113.741 71.6714 115 101C137.606 96.9204 147.748 67.8337 141.251 48C134.751 28.1605 114.505 16.3441 94 19.3002C87.3225 20.2628 80.2784 23.1741 75 27.3796C68.7265 32.3779 64.0794 38.6427 61 46M54 57L55 58L54 57z"/>
<path style="fill:#63e3b7; stroke:none;" d="M46 139C46.2475 109.104 71.6009 85.6068 101 85C86.515 34.8152 8.50534 59.1811 20.2361 109C21.6836 115.147 24.2877 121.108 28.3287 126C33.1656 131.856 39.0333 136.084 46 139z"/>
<path style="fill:#e98c8c; stroke:none;" d="M154 61C153.753 90.8274 128.317 114.395 99 115C113.482 165.173 191.95 140.745 179.869 91C178.367 84.8168 175.749 78.9367 171.671 74C166.834 68.144 160.967 63.9159 154 61z"/>
<path style="fill:#f5d59a; stroke:none;" d="M150 79L151 80L150 79M175 79L176 80L175 79z"/>
<path style="fill:#f5d59a; stroke:none;" d="M139 154C108.426 153.369 87.2945 128.074 85 99C35.2917 113.347 58.5259 190.025 108 180.192C114.691 178.862 120.574 176.255 125.996 172.1C132.066 167.449 136.368 161.134 139 154M137 99L138 100L137 99M136 100L137 101L136 100M135 101L136 102L135 101z"/>
</svg>
